<mxfile host="app.diagrams.net" agent="Mozilla/5.0 (Windows NT 10.0; Win64; x64) AppleWebKit/537.36 (KHTML, like Gecko) Chrome/140.0.0.0 Safari/537.36" version="28.2.4">
  <diagram name="Página-1" id="yATfVq6UffEaLuV1YkY9">
    <mxGraphModel dx="1188" dy="653" grid="1" gridSize="10" guides="1" tooltips="1" connect="1" arrows="1" fold="1" page="1" pageScale="1" pageWidth="827" pageHeight="1169" math="0" shadow="0">
      <root>
        <mxCell id="0" />
        <mxCell id="1" parent="0" />
        <mxCell id="jJL81CbaYH6S9FDZj8BK-2" value="Proyecto" style="swimlane;whiteSpace=wrap;html=1;" vertex="1" parent="1">
          <mxGeometry x="410" y="190" width="400" height="790" as="geometry" />
        </mxCell>
        <mxCell id="jJL81CbaYH6S9FDZj8BK-8" value="&lt;p lang=&quot;es&quot; style=&quot;margin:0in;font-family:Calibri;font-size:11.0pt&quot;&gt;&lt;span style=&quot;font-size: 11pt; background-color: transparent; color: light-dark(rgb(0, 0, 0), rgb(255, 255, 255));&quot;&gt;nombre_proyecto (str)&lt;/span&gt;&lt;/p&gt;&lt;p lang=&quot;es&quot; style=&quot;margin:0in;font-family:Calibri;font-size:11.0pt&quot;&gt;estado_comercial (str)&lt;/p&gt;&lt;p lang=&quot;es&quot; style=&quot;margin:0in;font-family:Calibri;font-size:11.0pt&quot;&gt;info&amp;nbsp;&lt;/p&gt;&lt;p lang=&quot;es&quot; style=&quot;margin:0in;font-family:Calibri;font-size:11.0pt&quot;&gt;&lt;span style=&quot;font-size: 11pt; background-color: transparent; color: light-dark(rgb(0, 0, 0), rgb(255, 255, 255));&quot;&gt;cliente (fk_cliente)&lt;/span&gt;&lt;/p&gt;&lt;p lang=&quot;es&quot; style=&quot;margin:0in;font-family:Calibri;font-size:11.0pt&quot;&gt;monto_UF&lt;br&gt;&lt;span style=&quot;font-size: 11pt; background-color: transparent; color: light-dark(rgb(0, 0, 0), rgb(255, 255, 255));&quot;&gt;monto_clp&lt;/span&gt;&lt;/p&gt;&lt;p lang=&quot;es&quot; style=&quot;margin:0in;font-family:Calibri;font-size:11.0pt&quot;&gt;&lt;span style=&quot;font-size: 11pt; background-color: transparent; color: light-dark(rgb(0, 0, 0), rgb(255, 255, 255));&quot;&gt;tipo_&lt;/span&gt;&lt;span style=&quot;font-size: 11pt; background-color: transparent; color: light-dark(rgb(0, 0, 0), rgb(255, 255, 255));&quot;&gt;Proyecto&lt;/span&gt;&lt;/p&gt;&lt;p lang=&quot;es&quot; style=&quot;margin:0in;font-family:Calibri;font-size:11.0pt&quot;&gt;cant_Inmuebles&lt;/p&gt;&lt;p lang=&quot;es&quot; style=&quot;margin:0in;font-family:Calibri;font-size:11.0pt&quot;&gt;pisos&amp;nbsp;&lt;/p&gt;&lt;p lang=&quot;es&quot; style=&quot;margin:0in;font-family:Calibri;font-size:11.0pt&quot;&gt;torres&lt;br&gt;&lt;/p&gt;&lt;p lang=&quot;es&quot; style=&quot;margin:0in;font-family:Calibri;font-size:11.0pt&quot;&gt;partidas&lt;br&gt;&lt;/p&gt;&lt;p lang=&quot;es&quot; style=&quot;margin:0in;font-family:Calibri;font-size:11.0pt&quot;&gt;tipo_contrato&amp;nbsp;&lt;/p&gt;&lt;p lang=&quot;es&quot; style=&quot;margin:0in;font-family:Calibri;font-size:11.0pt&quot;&gt;&lt;span style=&quot;font-size: 11pt; background-color: transparent; color: light-dark(rgb(0, 0, 0), rgb(255, 255, 255));&quot;&gt;fecha_solicitud_cotización&lt;/span&gt;&lt;/p&gt;&lt;p lang=&quot;es&quot; style=&quot;margin:0in;font-family:Calibri;font-size:11.0pt&quot;&gt;fecha_deadline&lt;/p&gt;&lt;p lang=&quot;es&quot; style=&quot;margin:0in;font-family:Calibri;font-size:11.0pt&quot;&gt;&lt;span style=&quot;font-size: 11pt; background-color: transparent; color: light-dark(rgb(0, 0, 0), rgb(255, 255, 255));&quot;&gt;tipologia_p&lt;/span&gt;&lt;span style=&quot;font-size: 11pt; background-color: transparent; color: light-dark(rgb(0, 0, 0), rgb(255, 255, 255));&quot;&gt;iloto&amp;nbsp;&lt;/span&gt;&lt;/p&gt;&lt;p lang=&quot;es&quot; style=&quot;margin:0in;font-family:Calibri;font-size:11.0pt&quot;&gt;numeros_piloto&amp;nbsp;&lt;/p&gt;&lt;p lang=&quot;es&quot; style=&quot;margin:0in;font-family:Calibri;font-size:11.0pt&quot;&gt;fecha_piloto&lt;/p&gt;&lt;p lang=&quot;es&quot; style=&quot;margin:0in;font-family:Calibri;font-size:11.0pt&quot;&gt;fase_proyecto&lt;/p&gt;&lt;p lang=&quot;es&quot; style=&quot;margin:0in;font-family:Calibri;font-size:11.0pt&quot;&gt;&lt;span style=&quot;background-color: transparent; color: light-dark(rgb(0, 0, 0), rgb(255, 255, 255)); font-size: 11pt;&quot;&gt;fecha_ejec_inicio_obra&lt;/span&gt;&lt;/p&gt;&lt;p lang=&quot;es&quot; style=&quot;margin:0in;font-family:Calibri;font-size:11.0pt&quot;&gt;fecha_ejec_fin_obra&lt;/p&gt;&lt;p lang=&quot;es&quot; style=&quot;margin:0in;font-family:Calibri;font-size:11.0pt&quot;&gt;adjuntar_cotizacion_enviada&amp;nbsp;&lt;/p&gt;&lt;p lang=&quot;es&quot; style=&quot;margin:0in;font-family:Calibri;font-size:11.0pt&quot;&gt;probabilidad_cierre&amp;nbsp;&lt;/p&gt;&lt;p lang=&quot;es&quot; style=&quot;margin:0in;font-family:Calibri;font-size:11.0pt&quot;&gt;motivo_perdida_proyecto&amp;nbsp;&lt;/p&gt;&lt;p lang=&quot;es&quot; style=&quot;margin:0in;font-family:Calibri;font-size:11.0pt&quot;&gt;programa&lt;br&gt;entrega_cliente&amp;nbsp;&lt;/p&gt;&lt;p lang=&quot;es&quot; style=&quot;margin:0in;font-family:Calibri;font-size:11.0pt&quot;&gt;adjuntar_planos&lt;/p&gt;&lt;p lang=&quot;es&quot; style=&quot;margin:0in;font-family:Calibri;font-size:11.0pt&quot;&gt;one_pager&lt;br&gt;&lt;/p&gt;&lt;p lang=&quot;es&quot; style=&quot;margin:0in;font-family:Calibri;font-size:11.0pt&quot;&gt;instalación&lt;br&gt;despacho&lt;/p&gt;&lt;p lang=&quot;es&quot; style=&quot;margin:0in;font-family:Calibri;font-size:11.0pt&quot;&gt;diseñador_asignado&lt;/p&gt;&lt;p lang=&quot;es&quot; style=&quot;margin:0in;font-family:Calibri;font-size:11.0pt&quot;&gt;pagina_web&lt;br&gt;proyecto&lt;/p&gt;&lt;p lang=&quot;es&quot; style=&quot;margin:0in;font-family:Calibri;font-size:11.0pt&quot;&gt;ubicación&lt;br&gt;google_maps&lt;/p&gt;&lt;p lang=&quot;es&quot; style=&quot;margin:0in;font-family:Calibri;font-size:11.0pt&quot;&gt;region&lt;br&gt;&lt;/p&gt;&lt;p lang=&quot;es&quot; style=&quot;margin:0in;font-family:Calibri;font-size:11.0pt&quot;&gt;comuna&lt;br&gt;&lt;/p&gt;&lt;p lang=&quot;es&quot; style=&quot;margin:0in;font-family:Calibri;font-size:11.0pt&quot;&gt;Direccion&lt;br&gt;&lt;/p&gt;&lt;p lang=&quot;es&quot; style=&quot;margin:0in;font-family:Calibri;font-size:11.0pt&quot;&gt;&lt;span style=&quot;font-size: 11pt; background-color: transparent; color: light-dark(rgb(0, 0, 0), rgb(255, 255, 255));&quot;&gt;fecha_modificacion&lt;/span&gt;&lt;/p&gt;&lt;p lang=&quot;es&quot; style=&quot;margin:0in;font-family:Calibri;font-size:11.0pt&quot;&gt;&lt;span style=&quot;background-color: transparent; color: light-dark(rgb(0, 0, 0), rgb(255, 255, 255)); font-size: 11pt;&quot;&gt;responsable_&lt;/span&gt;&lt;span style=&quot;background-color: transparent; color: light-dark(rgb(0, 0, 0), rgb(255, 255, 255)); font-size: 11pt;&quot;&gt;comercial (fk_usuario_id)&lt;/span&gt;&lt;span style=&quot;font-size: 11pt; background-color: transparent; color: light-dark(rgb(0, 0, 0), rgb(255, 255, 255));&quot;&gt;&amp;nbsp;&lt;/span&gt;&lt;/p&gt;&lt;p style=&quot;margin: 0in; font-family: Calibri; font-size: 11pt;&quot; lang=&quot;es&quot;&gt;modificacion_por (&lt;span style=&quot;font-size: 14.6667px; background-color: transparent; color: light-dark(rgb(0, 0, 0), rgb(255, 255, 255));&quot;&gt;fk_&lt;/span&gt;&lt;span style=&quot;font-size: 11pt; background-color: transparent; color: light-dark(rgb(0, 0, 0), rgb(255, 255, 255));&quot;&gt;usuario_id)&lt;/span&gt;&lt;/p&gt;&lt;p lang=&quot;es&quot; style=&quot;margin:0in;font-family:Calibri;font-size:11.0pt&quot;&gt;&lt;span style=&quot;font-size: 14.6667px;&quot;&gt;gte_proyecto_contacto (fk_contactos)&lt;/span&gt;&lt;/p&gt;&lt;p lang=&quot;es&quot; style=&quot;margin:0in;font-family:Calibri;font-size:11.0pt&quot;&gt;&lt;span style=&quot;color: light-dark(rgb(255, 255, 255), rgb(238, 238, 238)); background-color: transparent; font-size: 14.6667px;&quot;&gt;adm_obra (&lt;/span&gt;&lt;span style=&quot;color: light-dark(rgb(255, 255, 255), rgb(238, 238, 238)); background-color: transparent; font-size: 14.6667px;&quot;&gt;&amp;nbsp;fk_contactos)&lt;/span&gt;&lt;/p&gt;" style="text;html=1;align=left;verticalAlign=middle;resizable=0;points=[];autosize=1;strokeColor=none;fillColor=none;" vertex="1" parent="jJL81CbaYH6S9FDZj8BK-2">
          <mxGeometry x="10" y="32.5" width="260" height="750" as="geometry" />
        </mxCell>
        <mxCell id="jJL81CbaYH6S9FDZj8BK-3" value="Usuario" style="swimlane;whiteSpace=wrap;html=1;" vertex="1" parent="1">
          <mxGeometry x="30" y="440" width="200" height="200" as="geometry" />
        </mxCell>
        <mxCell id="jJL81CbaYH6S9FDZj8BK-7" value="&lt;div&gt;&lt;span style=&quot;font-size: 14px;&quot;&gt;id_usuario&lt;/span&gt;&lt;/div&gt;&lt;font style=&quot;font-size: 14px;&quot;&gt;nombre&lt;/font&gt;&lt;div&gt;&lt;font size=&quot;3&quot;&gt;correo&lt;/font&gt;&lt;/div&gt;&lt;div&gt;&lt;font size=&quot;3&quot;&gt;rut&lt;/font&gt;&lt;/div&gt;&lt;div&gt;&lt;font size=&quot;3&quot;&gt;email&lt;/font&gt;&lt;/div&gt;&lt;div&gt;&lt;font size=&quot;3&quot;&gt;telefono&lt;/font&gt;&lt;/div&gt;&lt;div&gt;&lt;font size=&quot;3&quot;&gt;area_trabajo&lt;/font&gt;&lt;/div&gt;&lt;div&gt;&lt;font size=&quot;3&quot;&gt;privilegio&lt;/font&gt;&lt;/div&gt;" style="text;html=1;align=left;verticalAlign=middle;resizable=0;points=[];autosize=1;strokeColor=none;fillColor=none;" vertex="1" parent="jJL81CbaYH6S9FDZj8BK-3">
          <mxGeometry x="10" y="25" width="110" height="160" as="geometry" />
        </mxCell>
        <mxCell id="jJL81CbaYH6S9FDZj8BK-4" value="Cliente" style="swimlane;whiteSpace=wrap;html=1;" vertex="1" parent="1">
          <mxGeometry x="30" y="190" width="200" height="130" as="geometry" />
        </mxCell>
        <mxCell id="jJL81CbaYH6S9FDZj8BK-6" value="&lt;font style=&quot;font-size: 18px;&quot;&gt;id_cliente&lt;/font&gt;&lt;div&gt;&lt;font size=&quot;3&quot;&gt;nombre_cliente&lt;/font&gt;&lt;/div&gt;&lt;div&gt;&lt;font size=&quot;3&quot;&gt;tipo_cliente&lt;/font&gt;&lt;/div&gt;" style="text;html=1;align=left;verticalAlign=middle;resizable=0;points=[];autosize=1;strokeColor=none;fillColor=none;" vertex="1" parent="jJL81CbaYH6S9FDZj8BK-4">
          <mxGeometry x="10" y="40" width="130" height="70" as="geometry" />
        </mxCell>
        <mxCell id="jJL81CbaYH6S9FDZj8BK-11" value="" style="endArrow=classic;startArrow=classic;html=1;rounded=0;entryX=1.031;entryY=0.186;entryDx=0;entryDy=0;entryPerimeter=0;" edge="1" parent="1" target="jJL81CbaYH6S9FDZj8BK-6">
          <mxGeometry width="50" height="50" relative="1" as="geometry">
            <mxPoint x="400" y="290" as="sourcePoint" />
            <mxPoint x="790" y="290" as="targetPoint" />
            <Array as="points">
              <mxPoint x="360" y="290" />
              <mxPoint x="360" y="243" />
            </Array>
          </mxGeometry>
        </mxCell>
        <mxCell id="jJL81CbaYH6S9FDZj8BK-12" value="Contactos" style="swimlane;whiteSpace=wrap;html=1;" vertex="1" parent="1">
          <mxGeometry x="30" y="690" width="200" height="190" as="geometry" />
        </mxCell>
        <mxCell id="jJL81CbaYH6S9FDZj8BK-13" value="&lt;p lang=&quot;es&quot; style=&quot;margin: 0in; font-family: Calibri;&quot;&gt;&lt;font style=&quot;font-size: 18px;&quot;&gt;id_contacto&lt;/font&gt;&lt;/p&gt;&lt;p lang=&quot;es&quot; style=&quot;margin: 0in; font-family: Calibri;&quot;&gt;&lt;font size=&quot;3&quot;&gt;nombre_contacto&lt;/font&gt;&lt;/p&gt;&lt;p lang=&quot;es&quot; style=&quot;margin: 0in; font-family: Calibri;&quot;&gt;&lt;font size=&quot;3&quot;&gt;cargo&lt;br&gt;contacto&lt;/font&gt;&lt;/p&gt;&lt;p lang=&quot;es&quot; style=&quot;margin: 0in; font-family: Calibri;&quot;&gt;&lt;font size=&quot;3&quot;&gt;correo&lt;/font&gt;&lt;/p&gt;&lt;p lang=&quot;es&quot; style=&quot;margin: 0in; font-family: Calibri;&quot;&gt;&lt;font size=&quot;3&quot;&gt;telefono&lt;/font&gt;&lt;/p&gt;" style="text;html=1;align=left;verticalAlign=middle;resizable=0;points=[];autosize=1;strokeColor=none;fillColor=none;" vertex="1" parent="jJL81CbaYH6S9FDZj8BK-12">
          <mxGeometry x="10" y="40" width="140" height="130" as="geometry" />
        </mxCell>
        <mxCell id="jJL81CbaYH6S9FDZj8BK-15" value="" style="endArrow=classic;startArrow=classic;html=1;rounded=0;entryX=1.021;entryY=0.146;entryDx=0;entryDy=0;entryPerimeter=0;" edge="1" parent="jJL81CbaYH6S9FDZj8BK-12">
          <mxGeometry width="50" height="50" relative="1" as="geometry">
            <mxPoint x="370" y="270" as="sourcePoint" />
            <mxPoint x="150" y="60" as="targetPoint" />
            <Array as="points">
              <mxPoint x="330" y="270" />
              <mxPoint x="250" y="270" />
              <mxPoint x="250" y="60" />
            </Array>
          </mxGeometry>
        </mxCell>
        <mxCell id="jJL81CbaYH6S9FDZj8BK-14" value="" style="endArrow=classic;startArrow=classic;html=1;rounded=0;" edge="1" parent="1">
          <mxGeometry width="50" height="50" relative="1" as="geometry">
            <mxPoint x="400" y="940" as="sourcePoint" />
            <mxPoint x="180" y="750" as="targetPoint" />
            <Array as="points">
              <mxPoint x="360" y="940" />
              <mxPoint x="280" y="940" />
              <mxPoint x="280" y="750" />
            </Array>
          </mxGeometry>
        </mxCell>
        <mxCell id="jJL81CbaYH6S9FDZj8BK-19" value="" style="endArrow=classic;startArrow=classic;html=1;rounded=0;entryX=1.021;entryY=0.146;entryDx=0;entryDy=0;entryPerimeter=0;" edge="1" parent="1">
          <mxGeometry width="50" height="50" relative="1" as="geometry">
            <mxPoint x="400" y="900" as="sourcePoint" />
            <mxPoint x="170" y="480" as="targetPoint" />
            <Array as="points">
              <mxPoint x="360" y="900" />
              <mxPoint x="360" y="480" />
            </Array>
          </mxGeometry>
        </mxCell>
        <mxCell id="jJL81CbaYH6S9FDZj8BK-16" value="" style="endArrow=classic;startArrow=classic;html=1;rounded=0;entryX=1.021;entryY=0.146;entryDx=0;entryDy=0;entryPerimeter=0;" edge="1" parent="1">
          <mxGeometry width="50" height="50" relative="1" as="geometry">
            <mxPoint x="400" y="920" as="sourcePoint" />
            <mxPoint x="170" y="480" as="targetPoint" />
            <Array as="points">
              <mxPoint x="360" y="920" />
              <mxPoint x="360" y="480" />
            </Array>
          </mxGeometry>
        </mxCell>
      </root>
    </mxGraphModel>
  </diagram>
</mxfile>
